@startuml
skinparam linetype ortho

entity "users1" as 1 {
**user_id: <<PK>> uuid**
--
name: varchar(50) NULL
surname: varchar(50) NULL
patronymic: varchar(50) NULL
passport: varchar(10) UNIQUE NOT NULL
phone_number: varchar(11) NOT NULL
email: varchar(50) UNIQUE NULL
created_at: timestamp NOT NULL
updated_at: timestamp NULL
}

entity "payment_accounts2" as 2 {
**account_id: <<PK>> uuid**
**user_id: <<FK>> uuid**
**bank_id: <<FK>> uuid**
--
bank_account: varchar(20) UNIQUE NOT NULL
created_at: timestamp NOT NULL
updated_at: timestamp NULL
}

entity "banks3" as 3 {
**bank_id: <<PK>> uuid**
--
bank_name: varchar(50) NOT NULL
bik: varchar(20) UNIQUE NULL
created_at: timestamp NOT NULL
updated_at: timestamp NULL
}

entity "investment_instruments4" as 4 {
**instrument_id: <<PK>> uuid**
**company_id: <<FK>> uuid**
--
title: varchar(50) UNIQUE NOT NULL
description: varchar(254) NULL
return: diuble precision NOT NULL
carrency: varchar(3) NOT NULL
created_at: timestamp NOT NULL
updated_at: timestamp NULL
}

entity "investments5" as 5 {
**investment_id: <<PK>> uuid**
**user_id: <<FK>> uuid**
**instrument_id: <<FK>> uuid**
--
price: diuble precision NOT NULL
quantity: integer NOT NULL
status: varchar(20) NOT NULL
created_at: timestamp NOT NULL
updated_at: timestamp NULL
}

entity "events6" as 6 {
**event_id: <<PK>> uuid**
**investment_id: <<FK>> uuid**
--
type: varchar(20) NOT NULL
status: varchar(20) NOT NULL
created_at: timestamp NOT NULL
updated_at: timestamp NULL
}

entity "companies7" as 7 {
**company_id: <<PK>> uuid**
--
company_name: varchar(50) NOT NULL
created_at: timestamp NOT NULL
updated_at: timestamp NULL
}

1||--o{2
5||--o{4
5||--||6
1||--o{5
3||--o{2
7||-o{4
@enduml